<?xml version="1.0"?>
<svg version="1.1" xmlns="http://www.w3.org/2000/svg" width="400px" height="200px"><path fill="#ffff" d="M60,133.8c0,13.9-11.3,21.4-24.3,21.4c-6,0-13.1-1.1-19.1-3.2c-1.3-0.5-1.7-1.1-1.7-1.9c0-0.4,0-0.8,0.2-1.3l2.1-6.5c0.3-1,0.8-1.6,1.8-1.6c0.4,0,0.9,0.1,1.5,0.3c4.7,1.7,9.9,3,14.9,3c5.4,0,11.5-2.6,11.5-8.9c0-4.6-3.4-7.1-7.3-9l-13-6.5c-7.1-3.5-11.8-9.4-11.8-17.2c0-12.2,12-18.9,23.1-18.9c6.6,0,12.1,1,17.9,3.5c1.3,0.6,2,1.2,2,2c0,0.4-0.1,0.8-0.3,1.3l-2.4,6.1c-0.4,1.1-1,1.5-1.7,1.5c-0.5,0-1-0.2-1.6-0.4c-4.1-1.7-9.2-3.1-13.2-3.1c-4.7,0-10.1,2-10.1,7.6c0,4.1,3.8,6.5,7.1,8.1l11.1,5.4c7.9,3.8,13.3,9.1,13.3,18.3z M119.85,151.5c0,1.9-1.2,2.5-2.8,2.5l-7.3,0c-1.7,0-2.7-0.6-2.7-2.6l0-12.4l-31.5,0c-2.4,0-2.8-1.3-2.8-3.1l0-3.7c0-1.8,0.2-2.8,1.3-5l18.9-39.8c0.8-1.8,1.5-2.6,3.5-2.6l7.2,0c1.6,0,2.1,0.7,2.1,1.6c0,0.6-0.2,1.1-0.4,1.6l-18.6,40.3l20.3,0l0-15.5c0-2,1.1-2.5,2.8-2.5l7.2,0c1.8,0,2.8,0.5,2.8,2.5l0,38.7z M188.8,152.8c0,0.8-0.6,1.2-1.5,1.2l-9.1,0c-1.8,0-3-0.5-3.9-2l-14.4-23.5l-7.7,0l0,23c0,1.5-0.6,2.5-2.3,2.5l-8.2,0c-1.7,0-2.4-0.8-2.4-2.5l0-63.8c0-2.2,0.5-2.9,2.7-2.9l14.8,0c8.7,0,17.9,1.3,23.2,7.4c3.2,3.7,4.8,8.6,4.8,14c0,9.2-4.9,16.4-12.9,19.9l16.4,25.3c0.3,0.5,0.5,1,0.5,1.4z M171.7,106.4c0-8.7-5.8-11.8-14.5-11.8l-5,0l0,24.2l6.2,0c8,0,13.3-4.3,13.3-12.4z M253.95,152.8c0,0.8-0.6,1.2-1.5,1.2l-9.1,0c-1.8,0-3-0.5-3.9-2l-14.4-23.5l-7.7,0l0,23c0,1.5-0.6,2.5-2.3,2.5l-8.2,0c-1.7,0-2.4-0.8-2.4-2.5l0-63.8c0-2.2,0.5-2.9,2.7-2.9l14.8,0c8.7,0,17.9,1.3,23.2,7.4c3.2,3.7,4.8,8.6,4.8,14c0,9.2-4.9,16.4-12.9,19.9l16.4,25.3c0.3,0.5,0.5,1,0.5,1.4z M236.85,106.4c0-8.7-5.8-11.8-14.5-11.8l-5,0l0,24.2l6.2,0c8,0,13.3-4.3,13.3-12.4z M325.8,152.4c0,1-0.5,1.6-1.8,1.6l-8.9,0c-2.1,0-2.8-0.8-3.4-2.4l-5.2-14.7l-25.3,0l-5.2,15c-0.4,1.3-1.1,2.1-2.7,2.1l-8.9,0c-1,0-1.4-0.5-1.4-1.3c0-0.3,0-0.7,0.2-1.1l24.4-64.8c0.5-1.2,1.2-2,2.7-2l8,0c1.5,0,2.4,0.7,2.8,1.8l24.5,64.5c0.2,0.5,0.2,0.9,0.2,1.3z M303.1,127.2l-7.1-21.1c-0.9-2.8-1.5-4.9-2-6.5l-0.2,0c-0.5,1.7-1.1,3.8-2.1,6.6l-7.1,21l18.5,0z M389.35,152.8c0,0.8-0.6,1.2-1.5,1.2l-9.1,0c-1.8,0-3-0.5-3.9-2l-14.4-23.5l-7.7,0l0,23c0,1.5-0.6,2.5-2.3,2.5l-8.2,0c-1.7,0-2.4-0.8-2.4-2.5l0-63.8c0-2.2,0.5-2.9,2.7-2.9l14.8,0c8.7,0,17.9,1.3,23.2,7.4c3.2,3.7,4.8,8.6,4.8,14c0,9.2-4.9,16.4-12.9,19.9l16.4,25.3c0.3,0.5,0.5,1,0.5,1.4z M372.25,106.4c0-8.7-5.8-11.8-14.5-11.8l-5,0l0,24.2l6.2,0c8,0,13.3-4.3,13.3-12.4z"/><path fill="#ffff" d=""/></svg>
