<?xml version="1.0" standalone="no"?>
<!DOCTYPE svg PUBLIC "-//W3C//DTD SVG 20010904//EN"
 "http://www.w3.org/TR/2001/REC-SVG-20010904/DTD/svg10.dtd">
<svg version="1.0" xmlns="http://www.w3.org/2000/svg"
 width="768.000000pt" height="768.000000pt" viewBox="0 0 768.000000 768.000000"
 preserveAspectRatio="xMidYMid meet">

<g transform="translate(0.000000,768.000000) scale(0.100000,-0.100000)"
fill="#ffff" stroke="none">
<path d="M4715 5459 c-302 -36 -517 -338 -454 -641 19 -90 73 -190 138 -255
49 -49 146 -109 622 -385 310 -179 760 -440 999 -579 248 -143 461 -261 495
-272 39 -12 90 -19 145 -20 239 -2 436 143 516 378 23 72 26 91 21 180 -7 159
-74 294 -188 382 -45 34 -1880 1102 -1996 1162 -86 43 -196 62 -298 50z"/>
<path d="M2780 5453 c-60 -12 -166 -71 -1020 -568 -498 -290 -941 -546 -984
-568 -179 -91 -296 -280 -296 -477 0 -143 52 -271 150 -370 47 -48 191 -135
1040 -625 542 -313 1010 -580 1042 -592 163 -66 355 -39 503 72 258 194 289
568 65 795 -46 47 -145 108 -627 385 -315 182 -573 332 -572 335 0 3 254 151
565 330 503 289 573 332 630 389 72 72 126 168 144 258 17 80 8 224 -18 292
-62 161 -199 287 -361 335 -52 15 -200 20 -261 9z"/>
</g>
</svg>
